<svg xmlns="http://www.w3.org/2000/svg" xmlns:svg="http://www.w3.org/2000/svg" xmlns:xlink="http://www.w3.org/1999/xlink" id="svg13965" width="128" height="128" version="1.0"><defs id="defs13967"><radialGradient id="radialGradient25085" cx="621.121" cy="758.496" r="31.574" fx="621.121" fy="758.496" gradientTransform="matrix(1.4081561e-6,3.053388,-1.5069009,1.1922402e-6,1771.5661,-1156.574)" gradientUnits="userSpaceOnUse" xlink:href="#linearGradient3936"/><radialGradient id="radialGradient25093" cx="621.446" cy="796.51" r="31.574" fx="621.446" fy="796.51" gradientTransform="matrix(-0.9243675,0.9472303,-0.9204591,-0.9413737,1936.2697,941.74978)" gradientUnits="userSpaceOnUse" xlink:href="#linearGradient3926"/><radialGradient id="radialGradient25097" cx="628.499" cy="789.595" r="31.574" fx="639.946" fy="777.538" gradientTransform="matrix(-0.840394,0.8439202,-0.8143877,-0.8499287,1799.7216,930.29079)" gradientUnits="userSpaceOnUse" xlink:href="#linearGradient25063"/><linearGradient id="linearGradient3936"><stop style="stop-color:#fff;stop-opacity:.79487181" id="stop3938" offset="0"/><stop id="stop25033" offset=".58" style="stop-color:#fff;stop-opacity:.60000002"/><stop style="stop-color:#fff;stop-opacity:0" id="stop3940" offset="1"/></linearGradient><radialGradient id="radialGradient13963" cx="621.121" cy="758.496" r="31.574" fx="621.121" fy="758.496" gradientTransform="matrix(1.4081561e-6,3.053388,-1.5069009,1.1922402e-6,1771.5661,-1156.574)" gradientUnits="userSpaceOnUse" xlink:href="#linearGradient3936"/><linearGradient id="linearGradient3926"><stop style="stop-color:#dadada;stop-opacity:1" id="stop3928" offset="0"/><stop style="stop-color:#fff;stop-opacity:0" id="stop3930" offset="1"/></linearGradient><radialGradient id="radialGradient13961" cx="621.446" cy="796.51" r="31.574" fx="621.446" fy="796.51" gradientTransform="matrix(-0.9243675,0.9472303,-0.9204591,-0.9413737,1936.2697,941.74978)" gradientUnits="userSpaceOnUse" xlink:href="#linearGradient3926"/><filter id="filter4066"><feGaussianBlur id="feGaussianBlur4068" stdDeviation=".319"/></filter><linearGradient id="linearGradient25063"><stop id="stop25065" offset="0" style="stop-color:#fff;stop-opacity:1"/><stop style="stop-color:#eaeaea;stop-opacity:1" id="stop25067" offset=".457"/><stop style="stop-color:#a0a0a0;stop-opacity:1" id="stop25069" offset=".794"/><stop id="stop25071" offset="1" style="stop-color:#414141;stop-opacity:1"/></linearGradient><radialGradient id="radialGradient13959" cx="628.499" cy="789.595" r="31.574" fx="639.946" fy="777.538" gradientTransform="matrix(-0.840394,0.8439202,-0.8143877,-0.8499287,1799.7216,930.29079)" gradientUnits="userSpaceOnUse" xlink:href="#linearGradient25063"/><filter id="filter25003"><feGaussianBlur id="feGaussianBlur25005" stdDeviation="1.278"/></filter><linearGradient id="linearGradient2216" x1="541.335" x2="606.912" y1="104.507" y2="303.14" gradientTransform="matrix(-0.3937741,0,0,0.393752,978.3497,416.9815)" gradientUnits="userSpaceOnUse" xlink:href="#path1082_2_"/><linearGradient id="linearGradient5329" x1="291.836" x2="650.814" y1="238.082" y2="348.969" gradientUnits="userSpaceOnUse" xlink:href="#linearGradient5323"/><linearGradient id="linearGradient5323"><stop id="stop5325" offset="0" style="stop-color:#6e6e6e;stop-opacity:1"/><stop id="stop5327" offset="1" style="stop-color:#4d4d4d;stop-opacity:1"/></linearGradient><linearGradient id="linearGradient4352" x1="400.614" x2="616.486" y1="634.151" y2="666.978" gradientUnits="userSpaceOnUse" xlink:href="#linearGradient4346"/><linearGradient id="linearGradient4346"><stop id="stop4348" offset="0" style="stop-color:#00bdec;stop-opacity:1"/><stop id="stop4350" offset="1" style="stop-color:#40bfde;stop-opacity:1"/></linearGradient><linearGradient id="linearGradient3388"><stop id="stop3390" offset="0" style="stop-color:#000;stop-opacity:0"/><stop id="stop3392" offset="1" style="stop-color:#000;stop-opacity:.37113401"/></linearGradient><linearGradient id="path1082_2_" x1="112.499" x2="112.499" y1="6.137" y2="129.347" gradientTransform="translate(287,-83)" gradientUnits="userSpaceOnUse"><stop style="stop-color:#fff;stop-opacity:0" id="stop193" offset="0"/><stop style="stop-color:#fff;stop-opacity:.27450982" id="stop195" offset="1"/><midPointStop style="stop-color:#fff" id="midPointStop197" offset="0"/><midPointStop style="stop-color:#fff" id="midPointStop199" offset=".5"/><midPointStop style="stop-color:#000" id="midPointStop201" offset="1"/></linearGradient><linearGradient id="linearGradient2240" x1="541.335" x2="606.912" y1="104.507" y2="303.14" gradientTransform="matrix(-0.3937741,0,0,0.393752,978.34969,416.9815)" gradientUnits="userSpaceOnUse" xlink:href="#path1082_2_"/></defs><metadata id="metadata13970"/><g id="layer1" transform="translate(31.142828,-14.57145)"><g id="g14214"><rect style="fill:none;fill-opacity:1;stroke:none;stroke-width:2;stroke-miterlimit:4;stroke-dasharray:none;stroke-opacity:1" id="rect13941" width="128" height="128" x="-31.143" y="14.571"/><path id="path13943" d="M 660.16248,789.60785 A 31.573921,32.323132 0 1 1 597.01464,789.60785 A 31.573921,32.323132 0 1 1 660.16248,789.60785 z" transform="matrix(1.8686307,0,0,1.8253182,-1141.7427,-1362.7141)" style="opacity:.5;fill:#333;fill-opacity:1;stroke:none;stroke-width:2;stroke-miterlimit:4;stroke-dasharray:none;stroke-opacity:1;filter:url(#filter25003)"/><path style="fill:url(#radialGradient13959);fill-opacity:1;stroke:none;stroke-width:2;stroke-miterlimit:4;stroke-dasharray:none;stroke-opacity:1;filter:url(#filter4066)" id="path13945" d="M 660.16248,789.60785 A 31.573921,32.323132 0 1 1 597.01464,789.60785 A 31.573921,32.323132 0 1 1 660.16248,789.60785 z" transform="matrix(1.8686308,0,0,1.8253182,-1141.7428,-1362.7141)"/><path id="path13947" d="M 660.16248,789.60785 A 31.573921,32.323132 0 1 1 597.01464,789.60785 A 31.573921,32.323132 0 1 1 660.16248,789.60785 z" transform="matrix(1.8099115,0,0,1.76796,-1104.8325,-1317.4236)" style="fill:url(#radialGradient13961);fill-opacity:1;stroke:none;stroke-width:2;stroke-miterlimit:4;stroke-dasharray:none;stroke-opacity:1"/><g id="g14201" transform="matrix(0.3359375,0,0,0.3359375,-100.68397,0.8460322)"><g id="g2424" transform="matrix(1.3473684,0,0,1.3473684,-632.88236,-513.34366)"><g id="g2210"><path style="fill:#1793d1;fill-opacity:1;fill-rule:evenodd;stroke:none;stroke-width:1;stroke-linecap:round;stroke-linejoin:round;stroke-miterlimit:10;stroke-dasharray:none;stroke-opacity:1" id="path2518" d="M 128,0 C 116.60518,27.937051 109.68663,46.237163 97,73.34375 C 104.7785,81.588957 114.33826,91.155503 129.84375,102 C 113.17383,95.140423 101.81018,88.271496 93.3125,81.125 C 77.076039,115.00489 51.621645,163.24639 0,256 C 40.562707,232.58244 72.007597,218.13833 101.3125,212.625 C 100.05874,207.22065 99.388995,201.34748 99.4375,195.25 L 99.46875,193.96875 C 100.11254,167.97477 113.63809,147.98651 129.65625,149.34375 C 145.6744,150.70098 158.14379,172.88102 157.5,198.875 C 157.37873,203.77122 156.8095,208.47582 155.84375,212.84375 C 184.83328,218.51691 215.98162,232.89667 256,256 C 248.10807,241.47038 241.03949,228.38017 234.3125,215.90625 C 223.71641,207.69356 212.66949,197.00882 190.125,185.4375 C 205.6208,189.46395 216.72684,194.12 225.375,199.3125 C 156.97985,71.972668 151.45422,55.040376 128,0 z" transform="matrix(0.7421875,0,0,0.7421875,669.75015,435.62318)"/><path style="fill:#fff;fill-opacity:.16568047;fill-rule:evenodd;stroke:none;stroke-width:36.09999847;stroke-linecap:butt;stroke-linejoin:round;stroke-miterlimit:10;stroke-opacity:1" id="path2522" d="M 818.22607,548.55277 C 777.04464,492.65769 767.49922,447.60796 765.0814,436.85262 C 787.04877,487.52122 786.89873,488.14257 818.22607,548.55277 z"/><path style="fill:url(#linearGradient2240);fill-opacity:1;fill-rule:evenodd;stroke:none;stroke-width:.71416688;stroke-linecap:round;stroke-linejoin:round;stroke-miterlimit:10;stroke-dasharray:none;stroke-opacity:1" id="path2520" d="M 765.09805,436.43495 C 764.04164,439.032 763.01246,441.55215 762.03653,443.9496 C 760.95538,446.60545 759.92725,449.14088 758.90542,451.6266 C 757.88368,454.11235 756.87103,456.53816 755.86709,458.93251 C 754.86311,461.32697 753.85641,463.6942 752.82876,466.07606 C 751.80118,468.45783 750.7672,470.86451 749.67447,473.31239 C 748.58174,475.76035 747.44112,478.25743 746.24185,480.85023 C 745.04248,483.44305 743.78544,486.12838 742.43814,488.94471 C 742.25152,489.33479 742.02502,489.77873 741.83511,490.17396 C 747.59032,496.26959 754.67644,503.32372 766.11856,511.3263 C 753.77835,506.24838 745.35345,501.16879 739.05191,495.87953 C 738.72474,496.54744 738.43804,497.14384 738.10098,497.82777 C 737.65733,498.72801 737.12466,499.75092 736.66299,500.68055 C 735.85332,502.34087 735.00725,504.04631 734.13492,505.80629 C 733.79968,506.47281 733.50544,507.04912 733.16079,507.73133 C 727.65346,518.78398 720.82117,532.01437 712.03164,548.45887 C 736.12721,534.88306 762.11697,515.29645 809.32779,532.15394 C 806.96071,527.67075 804.7846,523.46638 802.74087,519.51356 C 800.69717,515.56062 798.79841,511.85806 797.03531,508.35755 C 795.27234,504.85712 793.64319,501.55686 792.11831,498.4308 C 790.59345,495.30481 789.17999,492.3543 787.85074,489.52455 C 786.5214,486.69485 785.26968,483.97191 784.09341,481.36048 C 782.91707,478.74908 781.79633,476.24733 780.73037,473.77626 C 779.6643,471.30506 778.6438,468.87908 777.64566,466.47035 C 776.64743,464.06155 775.67299,461.65857 774.7001,459.23402 C 774.35238,458.36764 774.00457,457.46512 773.6564,456.58998 C 770.99301,450.33729 768.2582,443.85835 765.09805,436.43495 z"/></g></g></g><path style="fill:url(#radialGradient13963);fill-opacity:1;stroke:none;stroke-width:2;stroke-miterlimit:4;stroke-dasharray:none;stroke-opacity:1" id="path13951" d="M 660.16248,789.60785 A 31.573921,32.323132 0 1 1 597.01464,789.60785 A 31.573921,32.323132 0 1 1 660.16248,789.60785 z" transform="matrix(1.1994867,0,0,0.8203424,-721.12629,-599.26248)"/></g></g></svg>