<svg xmlns="http://www.w3.org/2000/svg" xmlns:cc="http://web.resource.org/cc/" xmlns:svg="http://www.w3.org/2000/svg" id="svg2211" width="47" height="73" version="1.0"><metadata id="metadata2216"/><g id="g3208" transform="translate(-44.517797,4.0967298)"><g id="g3212" transform="matrix(1.0216109,0,0,1.0127041,45.533715,-4.3577662)"><path style="font-size:73.7244339px;font-style:normal;font-weight:400;fill:#aeaeae;fill-opacity:1;stroke:none;stroke-width:1px;stroke-linecap:butt;stroke-linejoin:miter;stroke-opacity:1;font-family:Bitstream Vera Sans" id="text2220" d="M 22.62043,20.307707 L 36.04778,0.32867349 L 43.859402,0.32867349 L 26.580238,26.139425 L 22.080456,31.215179 L 6.8531925,54.074074 L -0.9944279,54.074074 L 18.192644,25.383462"/><path id="path3206" d="M 1.4534537,0.32867349 L 9.2650758,0.32867349 L 45.011347,54.074074 L 37.199725,54.074074 L 22.080456,31.215179 L 6.8531925,54.074074 L -0.9944279,54.074074 L 18.192644,25.383462 L 1.4534537,0.32867349" style="font-size:73.7244339px;font-style:normal;font-weight:400;fill:#000;fill-opacity:1;stroke:none;stroke-width:1px;stroke-linecap:butt;stroke-linejoin:miter;stroke-opacity:1;font-family:Bitstream Vera Sans"/></g><path style="font-size:28.207407px;font-style:normal;font-variant:normal;font-weight:400;font-stretch:normal;text-align:start;line-height:125%;writing-mode:lr-tb;text-anchor:start;fill:#ee0a00;fill-opacity:1;stroke:none;stroke-width:1px;stroke-linecap:butt;stroke-linejoin:miter;stroke-opacity:1;font-family:Bitstream Vera Sans Mono" id="text3216" d="M 44.517797,65.480602 L 55.836194,59.828049 L 44.517797,54.228655 L 44.517797,51.056847 L 58.809298,58.321883 L 58.809298,61.298776 L 44.517797,68.652411 M 44.517797,68.652411 L 44.517797,65.480602 M 73.929389,61.298776 L 59.637889,68.652411 L 59.637889,65.480602 L 70.956287,59.828049 L 59.637889,54.228655 L 59.637889,51.056847 L 73.929389,58.321883 L 73.929389,61.298776 z M 91.517797,57.382744 L 77.270452,57.382744 L 77.270452,54.405851 L 91.517797,54.405851 L 91.517797,57.382744 z M 91.517797,65.267967 L 77.270452,65.267967 L 77.270452,62.291073 L 91.517797,62.291073 L 91.517797,65.267967 z"/></g></svg>